<svg width="123" height="114" viewBox="0 0 123 114" fill="none" xmlns="http://www.w3.org/2000/svg">
    <g filter="url(#filter0_d_66_58)">
        <path d="M42.9518 100.265L20.8451 85.1341C20.5474 84.932 20.3046 84.6684 20.1297 84.3655C13.506 73.0236 14.0944 58.6993 21.6124 47.8825C29.2646 36.8537 42.4517 31.334 55.5771 33.5228L73.9245 7.09078C74.6921 5.98948 76.201 5.70162 77.3127 6.4508L96.9452 19.8843C98.0455 20.64 98.323 22.14 97.5618 23.2525L93.9192 28.4965C93.1515 29.5978 91.6426 29.8857 90.531 29.1365C89.4307 28.3808 89.1532 26.8808 89.9144 25.7683L92.1736 22.5195L76.5346 11.8208L58.6623 37.5597C58.0951 38.3808 57.0941 38.7643 56.13 38.5581C44.4229 36.0291 32.442 40.7626 25.6108 50.5995C19.266 59.7368 18.6779 71.7875 24.0843 81.4392L45.2913 95.9529C56.2958 97.5265 67.4356 92.6953 73.7804 83.558C80.6229 73.7146 80.8062 60.9105 74.2609 50.9591C73.7234 50.1327 73.739 49.0618 74.3014 48.2585L84.6783 33.3232C85.4459 32.2219 86.9548 31.9341 88.0665 32.6833C89.1668 33.439 89.4442 34.939 88.6831 36.0515L79.2144 49.6846C85.9288 61.0789 85.4325 75.2752 77.7625 86.2993C70.2397 97.1339 56.9653 102.764 43.9322 100.656C43.5844 100.603 43.2495 100.467 42.9518 100.265Z" fill="url(#paint0_linear_66_58)"/>
        <path d="M33.377 46.4597C31.3352 48.0724 29.5037 49.9972 27.9636 52.2176C22.359 60.2844 21.7344 70.8605 26.2813 79.4678L46.3573 93.1987C56.0756 94.3483 65.8231 90.0068 71.4164 81.9465C72.9565 79.7262 74.1197 77.3496 74.9091 74.8746L33.377 46.4597Z" fill="#C17CD1"/>
        <path d="M29.0772 64.4973C30.862 67.5888 34.8375 68.635 37.9568 66.8341C41.076 65.0332 42.1577 61.0672 40.3729 57.9757C38.588 54.8843 34.6125 53.8381 31.4933 55.639C28.374 57.4399 27.2923 61.4059 29.0772 64.4973Z" fill="white"/>
        <path d="M60.5749 60.5808C61.7302 62.5819 64.3035 63.2591 66.3226 62.0934C68.3416 60.9277 69.0418 58.3605 67.8865 56.3595C66.7312 54.3584 64.1578 53.6812 62.1388 54.8469C60.1197 56.0126 59.4195 58.5798 60.5749 60.5808Z" fill="#C17CD1"/>
        <path d="M63.8792 46.7525C63.1068 47.8716 61.5687 48.1613 60.4441 47.3897C59.326 46.6293 59.0469 45.1003 59.8307 43.9748C60.6032 42.8557 62.1412 42.566 63.2658 43.3376C64.3791 44.1157 64.6582 45.6447 63.8792 46.7525Z" fill="#C17CD1"/>
    </g>
    <defs>
        <filter id="filter0_d_66_58" x="12.5395" y="5.03368" width="90.452" height="103.06" filterUnits="userSpaceOnUse" color-interpolation-filters="sRGB">
            <feFlood flood-opacity="0" result="BackgroundImageFix"/>
            <feColorMatrix in="SourceAlpha" type="matrix" values="0 0 0 0 0 0 0 0 0 0 0 0 0 0 0 0 0 0 127 0" result="hardAlpha"/>
            <feOffset dx="1" dy="3"/>
            <feGaussianBlur stdDeviation="2"/>
            <feComposite in2="hardAlpha" operator="out"/>
            <feColorMatrix type="matrix" values="0 0 0 0 0.862726 0 0 0 0 0.587708 0 0 0 0 0.904167 0 0 0 1 0"/>
            <feBlend mode="normal" in2="BackgroundImageFix" result="effect1_dropShadow_66_58"/>
            <feBlend mode="normal" in="SourceGraphic" in2="effect1_dropShadow_66_58" result="shape"/>
        </filter>
        <linearGradient id="paint0_linear_66_58" x1="31.4371" y1="33.7249" x2="87.3217" y2="72.5383" gradientUnits="userSpaceOnUse">
            <stop stop-color="#6D4E9A"/>
            <stop offset="1" stop-color="#923189"/>
        </linearGradient>
    </defs>
</svg>
