<svg width="106" height="106" viewBox="0 0 106 106" fill="none" xmlns="http://www.w3.org/2000/svg">
    <g filter="url(#filter0_d_65_50)">
        <path d="M33.4187 76.8774C24.5865 70.7541 19.324 60.7086 19.324 50C19.324 39.2914 24.5865 29.2459 33.4187 23.1227C34.7167 22.2197 35.0412 20.442 34.1382 19.144C33.2353 17.846 31.4576 17.5215 30.1595 18.4244C19.7895 25.6058 13.5958 37.4149 13.5958 50C13.5958 62.5851 19.7895 74.3942 30.1454 81.5756C30.6392 81.9142 31.2036 82.0835 31.7679 82.0835C32.6709 82.0835 33.5598 81.6603 34.1241 80.8561C35.0271 79.558 34.7167 77.7803 33.4187 76.8774Z" fill="url(#paint0_linear_65_50)"/>
        <path d="M73.8405 18.4244C72.5425 17.5215 70.7648 17.846 69.8618 19.144C68.9589 20.442 69.2834 22.2197 70.5814 23.1227C79.4135 29.2318 84.6761 39.2914 84.6761 50C84.6761 60.7086 79.4135 70.7541 70.5814 76.8774C69.2834 77.7803 68.9589 79.558 69.8618 80.8561C70.4121 81.6603 71.3009 82.0835 72.218 82.0835C72.7824 82.0835 73.3467 81.9142 73.8405 81.5756C84.2105 74.3942 90.4043 62.5851 90.4043 50C90.3902 37.4149 84.2105 25.6058 73.8405 18.4244Z" fill="url(#paint1_linear_65_50)"/>
        <path d="M55.9504 71.6994C48.8114 72.9975 41.503 70.7118 36.3956 65.6044C31.2882 60.497 29.0026 53.1745 30.3006 46.0496C30.5827 44.4976 29.5528 43.0021 28.0008 42.7199C26.4489 42.4377 24.9533 43.4677 24.6711 45.0196C23.0486 53.9929 25.9127 63.2059 32.3605 69.6396C37.609 74.888 44.7057 77.7662 52.0141 77.7662C53.6648 77.7662 55.3297 77.6252 56.9804 77.3148C58.5324 77.0326 59.5623 75.5512 59.2801 73.9851C58.998 72.4472 57.5024 71.4173 55.9504 71.6994Z" fill="url(#paint2_linear_65_50)"/>
        <path d="M48.0354 28.3006C55.1745 27.0026 62.4829 29.2882 67.5903 34.3956C72.6977 39.503 74.9833 46.8255 73.6853 53.9504C73.4031 55.5024 74.4331 56.998 75.985 57.2801C76.1543 57.3083 76.3237 57.3225 76.493 57.3225C77.8474 57.3225 79.0467 56.3489 79.3006 54.9804C80.9231 46.0072 78.059 36.7941 71.6113 30.3605C65.1777 23.9127 55.9646 21.0486 46.9914 22.6711C45.4394 22.9533 44.4094 24.4347 44.6916 26.0008C45.002 27.5528 46.4835 28.5686 48.0354 28.3006Z" fill="url(#paint3_linear_65_50)"/>
        <path d="M52 1C24.9816 1 3 22.9816 3 50C3 77.0184 24.9816 99 52 99C79.0184 99 101 77.0184 101 50C101 22.9816 79.0184 1 52 1ZM52 93.2718C28.1278 93.2718 8.71408 73.8581 8.71408 49.9859C8.71408 26.1137 28.1278 6.71408 52 6.71408C75.858 6.71408 95.2859 26.1278 95.2859 50C95.2859 73.8722 75.858 93.2718 52 93.2718Z" fill="url(#paint4_linear_65_50)"/>
        <path d="M52 32.0958C51.0547 32.0958 50.2787 32.8577 50.2787 33.8171V45.1042C48.247 45.8096 46.7797 47.7284 46.7797 49.9999C46.7797 52.8781 49.1077 55.2061 51.9859 55.2061C52.7901 55.2061 53.552 55.0086 54.2433 54.67L69.495 69.9216C69.8336 70.2602 70.2709 70.4295 70.7083 70.4295C71.1457 70.4295 71.5831 70.2602 71.9217 69.9216C72.5848 69.2585 72.5848 68.1721 71.9217 67.4949L56.67 52.2432C56.9945 51.566 57.2062 50.8041 57.2062 49.9858C57.2062 47.7143 55.7388 45.7955 53.7072 45.0901V33.803C53.7072 32.8718 52.9453 32.0958 52 32.0958Z" fill="url(#paint5_linear_65_50)"/>
    </g>
    <defs>
        <filter id="filter0_d_65_50" x="0" y="0" width="106" height="106" filterUnits="userSpaceOnUse" color-interpolation-filters="sRGB">
            <feFlood flood-opacity="0" result="BackgroundImageFix"/>
            <feColorMatrix in="SourceAlpha" type="matrix" values="0 0 0 0 0 0 0 0 0 0 0 0 0 0 0 0 0 0 127 0" result="hardAlpha"/>
            <feOffset dx="1" dy="3"/>
            <feGaussianBlur stdDeviation="2"/>
            <feComposite in2="hardAlpha" operator="out"/>
            <feColorMatrix type="matrix" values="0 0 0 0 0.298177 0 0 0 0 0.545646 0 0 0 0 0.954167 0 0 0 0.81 0"/>
            <feBlend mode="normal" in2="BackgroundImageFix" result="effect1_dropShadow_65_50"/>
            <feBlend mode="normal" in="SourceGraphic" in2="effect1_dropShadow_65_50" result="shape"/>
        </filter>
        <linearGradient id="paint0_linear_65_50" x1="3.00003" y1="49.9981" x2="100.996" y2="49.9981" gradientUnits="userSpaceOnUse">
            <stop stop-color="#33BBFF"/>
            <stop offset="1" stop-color="#3B6DDB"/>
        </linearGradient>
        <linearGradient id="paint1_linear_65_50" x1="3.00006" y1="49.9981" x2="100.996" y2="49.9981" gradientUnits="userSpaceOnUse">
            <stop stop-color="#33BBFF"/>
            <stop offset="1" stop-color="#3B6DDB"/>
        </linearGradient>
        <linearGradient id="paint2_linear_65_50" x1="2.99997" y1="49.9981" x2="100.996" y2="49.9981" gradientUnits="userSpaceOnUse">
            <stop stop-color="#33BBFF"/>
            <stop offset="1" stop-color="#3B6DDB"/>
        </linearGradient>
        <linearGradient id="paint3_linear_65_50" x1="2.99999" y1="49.998" x2="100.996" y2="49.998" gradientUnits="userSpaceOnUse">
            <stop stop-color="#33BBFF"/>
            <stop offset="1" stop-color="#3B6DDB"/>
        </linearGradient>
        <linearGradient id="paint4_linear_65_50" x1="3" y1="49.998" x2="100.996" y2="49.998" gradientUnits="userSpaceOnUse">
            <stop stop-color="#33BBFF"/>
            <stop offset="1" stop-color="#3B6DDB"/>
        </linearGradient>
        <linearGradient id="paint5_linear_65_50" x1="2.99999" y1="49.998" x2="100.996" y2="49.998" gradientUnits="userSpaceOnUse">
            <stop stop-color="#33BBFF"/>
            <stop offset="1" stop-color="#3B6DDB"/>
        </linearGradient>
    </defs>
</svg>
