<svg width="118" height="119" viewBox="0 0 118 119" fill="none" xmlns="http://www.w3.org/2000/svg">
    <g filter="url(#filter0_d_68_95)">
        <path d="M39.4718 91.3363C41.8682 87.1942 44.2529 83.0521 46.7078 78.793C45.9245 78.3249 45.153 77.8803 44.3932 77.424C44.0542 77.225 43.7035 77.0378 43.4113 76.7804C42.7333 76.1954 42.6047 75.3178 43.0489 74.5806C43.4931 73.8435 44.3348 73.5042 45.153 73.8903C46.2636 74.4168 47.3156 75.0487 48.4846 75.6922C50.9628 71.4097 53.4293 67.1272 55.9426 62.7745C55.3464 62.4117 54.8204 62.0958 54.2827 61.7799C50.9044 59.8258 47.526 57.8718 44.1477 55.9294C43.9607 55.8241 43.7737 55.7305 43.61 55.6018C42.78 54.97 42.5696 54.0222 43.0606 53.2148C43.5282 52.4543 44.4633 52.1735 45.3634 52.6181C46.2986 53.0861 47.1987 53.6478 48.1105 54.1626C51.2784 55.9879 54.4463 57.8133 57.7195 59.7088C60.221 55.3795 62.6876 51.1087 65.2009 46.7559C63.4357 45.7263 61.729 44.7317 60.0106 43.7488C54.7035 40.6832 49.4081 37.6176 44.101 34.5753C43.3177 34.1307 42.7216 33.5691 42.8151 32.5979C42.932 31.4629 44.0659 30.7491 45.1413 31.2172C46.1583 31.6618 47.1052 32.2586 48.0638 32.8085C54.1775 36.3305 60.2795 39.8641 66.3932 43.3861C66.5452 43.4797 66.7088 43.5616 66.966 43.702C69.4442 39.4078 71.9107 35.137 74.4474 30.7491C66.0191 25.8816 57.6376 21.0374 49.1626 16.1347C48.7885 16.7549 48.4378 17.3282 48.0988 17.9133C47.4325 19.0483 46.8013 20.2183 46.0999 21.3416C45.5154 22.266 44.5218 22.5468 43.7035 22.0788C42.8735 21.6108 42.5579 20.5928 43.084 19.645C44.4166 17.258 45.6908 14.8242 47.2104 12.566C49.9926 8.42385 54.61 7.26547 58.9702 9.67585C64.441 12.6947 69.8533 15.8071 75.1955 19.0366C79.6493 21.7395 80.7832 26.7708 78.118 31.4278C73.8746 38.8578 69.5728 46.2528 65.2944 53.6595C56.7258 68.5079 48.1456 83.3563 39.6004 98.2164C39.3082 98.7196 39.3199 99.3982 39.1913 99.995C39.2731 100.053 39.3549 100.112 39.4368 100.17C43.2125 97.9941 46.9883 95.8177 50.8693 93.5829C50.3549 92.6936 49.8523 91.8512 49.3964 90.9853C49.1977 90.6226 48.9873 90.2247 48.9405 89.8269C48.8353 89.0429 49.1626 88.4111 49.9224 88.0835C50.6939 87.7441 51.4421 87.8612 51.9447 88.5515C52.4825 89.277 52.8916 90.0726 53.3592 90.8449C53.5462 91.1491 53.7216 91.4533 53.9437 91.816C58.2689 89.3121 62.5473 86.8432 66.8842 84.3392C65.5983 82.116 64.3592 79.9631 63.1201 77.8101C62.0446 75.938 60.9575 74.0658 59.882 72.1937C59.4729 71.4799 59.4145 70.7662 59.9522 70.0875C60.4081 69.5025 61.0861 69.2099 61.7056 69.5142C62.2784 69.795 62.8162 70.3215 63.1552 70.8832C65.2242 74.37 67.2232 77.892 69.2455 81.4023C69.4676 81.7884 69.7014 82.1628 69.9586 82.5841C74.2721 80.0918 78.5271 77.6346 82.8757 75.1189C82.6886 74.7562 82.525 74.4519 82.3496 74.1477C78.492 67.4665 74.6344 60.7853 70.7768 54.1041C70.6015 53.7999 70.4028 53.4723 70.3209 53.1329C70.1222 52.3256 70.356 51.6469 71.1041 51.2023C71.7822 50.7928 72.7056 50.9215 73.2434 51.5182C73.4655 51.7639 73.6291 52.0564 73.7928 52.3373C77.627 58.96 81.4495 65.5944 85.2837 72.2288C85.4942 72.5915 85.7046 72.9308 85.9618 73.3521C90.2869 70.8481 94.542 68.3909 98.9022 65.8752C94.0159 57.4272 89.1647 49.0142 84.2784 40.5545C82.6536 41.4906 81.1222 42.3798 79.5909 43.2574C78.1998 44.053 77.1711 43.9594 76.5866 42.9766C75.9904 41.9703 76.4346 41.0225 77.8842 40.1917C80.0234 38.9749 82.1042 37.641 84.3018 36.5411C88.6621 34.3764 93.2561 35.488 95.8045 39.595C99.1945 45.0827 102.339 50.7225 105.495 56.3507C107.798 60.4577 106.208 65.7114 101.86 68.2154C87.4463 76.4762 73.1148 84.7838 58.7598 93.068C52.4474 96.7187 46.1233 100.358 39.8225 104.043C39.4718 104.242 39.2264 104.722 39.051 105.12C38.5951 106.185 38.1977 107.285 37.7651 108.408C40.7343 108.408 43.797 108.408 46.9883 108.408C46.9883 107.565 46.9883 106.735 46.9883 105.904C46.9883 105.518 46.9766 105.12 47.0234 104.734C47.1286 103.856 47.8884 103.178 48.7418 103.178C49.5951 103.178 50.3666 103.845 50.4368 104.734C50.5069 105.717 50.4952 106.711 50.4718 107.706C50.4602 108.279 50.6121 108.502 51.2317 108.502C55.7322 108.478 60.2444 108.478 64.745 108.502C65.4463 108.502 65.5048 108.186 65.5048 107.624C65.4931 103.505 65.4931 99.3865 65.4931 95.2795C65.4931 95.0104 65.4814 94.7413 65.4931 94.4721C65.5282 93.2904 66.1711 92.5532 67.1881 92.5298C68.2168 92.5064 68.9649 93.2904 68.9649 94.4838C68.9766 98.7547 68.9766 103.014 68.9766 107.285C68.9766 107.647 68.9766 107.998 68.9766 108.431C73.9798 108.431 78.9246 108.431 83.9511 108.431C83.9511 108.033 83.9511 107.682 83.9511 107.331C83.9511 99.6673 83.9511 92.0033 83.9511 84.3509C83.9511 82.6777 84.5473 81.8586 85.7513 81.882C86.9086 81.9054 87.4347 82.6777 87.4347 84.3626C87.4347 92.0501 87.4463 99.7492 87.4113 107.437C87.4113 108.314 87.6568 108.537 88.5218 108.537C92.8119 108.49 97.1137 108.513 101.404 108.513C101.696 108.513 102 108.513 102.362 108.513C102.362 98.7547 102.362 89.0663 102.362 79.2493C101.193 79.2493 100.024 79.2493 98.8672 79.2493C97.9671 79.2493 97.067 79.2727 96.1668 79.2025C95.1966 79.1323 94.542 78.3717 94.542 77.4825C94.5537 76.6166 95.1732 75.9146 96.1084 75.7858C96.6111 75.7156 97.1254 75.739 97.6397 75.739C100.13 75.7624 102.643 75.6337 105.109 75.8794C109.645 76.3358 112.848 79.846 112.918 84.4094C113.012 90.7162 113.012 97.0346 112.918 103.341C112.836 108.197 109.154 111.789 104.291 112C104.057 111.988 103.824 111.988 103.578 111.988C73.1732 111.988 42.78 111.988 12.3751 111.988C9.31243 111.988 6.7407 110.959 4.82359 108.502C3.64293 106.98 3.10521 105.225 3.01169 103.318C3 103.084 3 102.85 3 102.604C3 72.2054 3.01169 41.7948 3 11.3842C3 8.31855 4.02869 5.74435 6.49522 3.83711C8.07333 2.60852 9.88523 2.03517 11.8608 2.02347C18.0446 2.00007 24.2402 1.96497 30.424 2.02347C35.4623 2.07028 39.1212 5.81456 39.2614 10.9278C39.2731 11.2906 39.2614 11.6533 39.2614 12.0043C39.2614 38.0856 39.2614 64.1669 39.2614 90.2481C39.2614 90.5875 39.2614 90.9385 39.2614 91.2778C39.3316 91.3129 39.4017 91.3246 39.4718 91.3363ZM35.7545 57.0761C35.7545 41.8767 35.7545 26.6655 35.7545 11.4661C35.7545 7.62819 33.627 5.51034 29.7694 5.51034C24.0064 5.51034 18.2317 5.48693 12.4687 5.53374C11.4984 5.54544 10.458 5.68585 9.5813 6.07198C7.29012 7.10166 6.48353 9.0791 6.49522 11.5012C6.50691 28.6898 6.49522 45.8784 6.49522 63.0553C6.49522 76.2422 6.49522 89.4408 6.49522 102.628C6.49522 106.22 8.63443 108.466 12.1297 108.478C18.1382 108.513 24.1467 108.49 30.1552 108.49C32.0021 108.49 33.5452 107.835 34.7024 106.337C35.6026 105.167 35.7545 103.821 35.7545 102.417C35.7545 87.3112 35.7545 72.1937 35.7545 57.0761ZM105.963 108.139C106.36 107.952 106.664 107.835 106.933 107.671C108.722 106.536 109.458 104.863 109.458 102.791C109.458 96.824 109.458 90.8449 109.446 84.8774C109.446 84.3977 109.388 83.918 109.318 83.4499C109.037 81.648 107.225 79.7524 105.963 79.7056C105.963 89.1248 105.963 98.5324 105.963 108.139ZM75.8852 27.5314C76.2827 25.1795 75.3358 23.2021 73.2784 21.9969C70.204 20.1832 67.1063 18.4164 64.0085 16.6262C61.7992 15.3508 59.6015 14.0637 57.3805 12.8117C55.2062 11.5831 52.7981 11.7703 51.2551 13.3148C59.4495 18.042 67.6206 22.7574 75.8852 27.5314ZM101.778 63.9211C101.895 63.6637 101.93 63.5467 101.988 63.4414C103.298 61.4874 103.262 59.5099 102.117 57.5091C100.34 54.4083 98.5515 51.3193 96.763 48.2186C95.5005 46.0305 94.2614 43.8424 92.9639 41.6778C91.7248 39.6184 89.6089 38.6355 87.4697 39.1504C92.2157 47.3644 96.9384 55.5316 101.778 63.9211Z" fill="url(#paint0_linear_68_95)"/>
        <path d="M21.1541 87.4517C24.696 87.4634 27.56 90.3418 27.5366 93.8755C27.5249 97.4091 24.6259 100.299 21.1073 100.276C17.577 100.252 14.6897 97.3506 14.713 93.8404C14.7364 90.3067 17.6238 87.44 21.1541 87.4517ZM21.1774 96.7539C22.7906 96.7305 24.0999 95.3966 24.0648 93.7936C24.0297 92.2491 22.6971 90.9269 21.1541 90.9269C19.5526 90.9269 18.2433 92.2491 18.2433 93.8638C18.2433 95.5136 19.5292 96.7773 21.1774 96.7539Z" fill="url(#paint1_linear_68_95)"/>
    </g>
    <defs>
        <filter id="filter0_d_68_95" x="0" y="0.991455" width="117.988" height="118.009" filterUnits="userSpaceOnUse" color-interpolation-filters="sRGB">
            <feFlood flood-opacity="0" result="BackgroundImageFix"/>
            <feColorMatrix in="SourceAlpha" type="matrix" values="0 0 0 0 0 0 0 0 0 0 0 0 0 0 0 0 0 0 127 0" result="hardAlpha"/>
            <feOffset dx="1" dy="3"/>
            <feGaussianBlur stdDeviation="2"/>
            <feComposite in2="hardAlpha" operator="out"/>
            <feColorMatrix type="matrix" values="0 0 0 0 0.958333 0 0 0 0 0.891889 0 0 0 0 0.543056 0 0 0 0.87 0"/>
            <feBlend mode="normal" in2="BackgroundImageFix" result="effect1_dropShadow_68_95"/>
            <feBlend mode="normal" in="SourceGraphic" in2="effect1_dropShadow_68_95" result="shape"/>
        </filter>
        <linearGradient id="paint0_linear_68_95" x1="3" y1="56.998" x2="112.996" y2="56.998" gradientUnits="userSpaceOnUse">
            <stop stop-color="#FFD60A"/>
            <stop offset="1" stop-color="#FF8C00"/>
        </linearGradient>
        <linearGradient id="paint1_linear_68_95" x1="14.7164" y1="93.8635" x2="27.5414" y2="93.8635" gradientUnits="userSpaceOnUse">
            <stop stop-color="#FFD60A"/>
            <stop offset="1" stop-color="#FF8C00"/>
        </linearGradient>
    </defs>
</svg>
