<svg width="118" height="118" viewBox="0 0 118 118" fill="none" xmlns="http://www.w3.org/2000/svg">
    <g filter="url(#filter0_d_66_90)">
        <path d="M41.0254 94.6579C39.2159 91.9213 39.216 90.0108 40.8822 87.5711C40.4787 86.461 39.9319 85.467 39.7757 84.4214C39.4112 81.9817 40.4787 80.1358 42.6396 78.9353C43.0952 78.6771 43.2124 78.4706 43.0692 77.9671C42.6396 76.4439 41.8065 75.2563 40.4917 74.3269C33.1106 69.1248 27.1875 62.7479 24.0242 54.1766C21.4467 47.1931 20.7177 40.003 21.8373 32.6451C22.9698 25.2098 26.2242 18.7684 31.4444 13.3339C37.2503 7.29269 44.3449 3.57502 52.7023 2.40034C63.3248 0.915857 72.8929 3.5363 81.1852 10.2358C88.5142 16.148 92.9793 23.8544 94.229 33.1615C95.5047 42.6622 94.0077 51.7369 89.126 60.1275C86.184 65.1747 82.1615 69.2926 77.5402 72.8424C76.5248 73.6299 75.3532 74.2753 74.5071 75.2176C73.7781 76.0308 73.3876 77.141 72.9059 78.1479C72.8278 78.3028 73.0231 78.7416 73.2053 78.8191C76.1603 80.2003 77.4881 84.1374 74.9757 87.3646C76.7331 89.7527 76.7852 92.1666 74.9497 94.6579C75.8349 95.7293 76.3296 96.9686 76.2905 98.3885C76.2124 101.215 74.2597 103.384 71.3958 103.642C69.8467 103.784 68.2716 103.707 66.7094 103.72C66.2929 103.72 65.8763 103.72 65.3035 103.72C65.3035 104.249 65.3035 104.714 65.3035 105.178C65.2645 108.715 62.9733 110.961 59.4065 110.987C58.3 110.987 57.1804 111.013 56.0739 110.974C53.1059 110.884 50.8538 108.728 50.6716 105.785C50.6065 104.598 50.6325 103.397 50.6455 102.209C50.6976 100.777 51.3875 100.105 52.8586 100.105C58.5994 100.092 64.3402 100.105 70.081 100.092C70.4716 100.092 70.8621 100.08 71.2396 100.002C72.1378 99.8084 72.6325 99.1501 72.6325 98.2723C72.6195 97.4204 72.0728 96.7362 71.2396 96.5297C69.6254 96.1424 69.0266 95.6261 69.0136 94.645C69.0136 93.6769 69.5864 93.1863 71.2266 92.7475C72.1118 92.5151 72.6325 91.8697 72.6325 91.0177C72.6325 90.1657 72.1118 89.5074 71.2396 89.275C71.1225 89.2492 71.0053 89.2363 70.8881 89.2105C69.6384 88.9394 69.0266 88.3327 69.0266 87.3775C69.0266 86.4352 69.6515 85.8285 70.8881 85.5445C72.0728 85.2863 72.6455 84.7054 72.6455 83.7373C72.6455 82.782 72.0858 82.1882 70.9012 81.9301C69.3781 81.5944 68.9615 80.949 69.0526 79.4C69.287 75.8759 70.784 73.1522 73.7651 71.0998C78.2822 67.9759 82.2006 64.2195 85.2207 59.5982C88.2929 54.9124 90.0112 49.7619 90.6621 44.237C91.1438 40.2483 91.1828 36.2724 90.4408 32.3224C89.6077 27.8173 87.8763 23.6349 85.2337 19.8786C80.1958 12.7659 73.4136 8.15757 64.8349 6.35037C56.7639 4.64643 49.0444 5.83402 41.8455 9.83568C35.571 13.321 30.9497 18.3682 27.9556 24.8484C25.6384 29.844 24.8053 35.1236 25.0657 40.5839C25.313 45.9668 26.3804 51.1431 28.7757 56.0096C31.2621 61.0569 34.868 65.1876 39.2029 68.7375C40.4006 69.7186 41.6503 70.6609 42.926 71.5645C44.9177 72.9973 46.1674 74.8949 46.6491 77.2701C46.8183 78.0575 47.1307 78.2898 47.9509 78.2898C52.8846 78.2511 57.8053 78.264 62.739 78.2769C63.1556 78.2769 63.5852 78.3028 63.9887 78.3931C64.8219 78.5867 65.3686 79.3484 65.3296 80.1745C65.2905 81.0136 64.6917 81.7106 63.8455 81.8397C63.468 81.9042 63.0645 81.9043 62.6739 81.9043C57.1414 81.9043 51.6088 81.9042 46.0763 81.9172C45.6337 81.9172 45.1651 81.943 44.7355 82.0333C43.8893 82.2141 43.3686 82.9369 43.3816 83.7889C43.4077 84.615 43.9284 85.2863 44.7485 85.4412C45.152 85.5186 45.5816 85.5445 45.9982 85.5445C51.5828 85.5574 57.1804 85.5445 62.7651 85.5445C64.4574 85.5445 65.3296 86.177 65.3165 87.3904C65.3035 88.5651 64.4313 89.1847 62.8041 89.1847C57.2976 89.1847 51.8041 89.1847 46.2976 89.1847C46.0633 89.1847 45.8159 89.1847 45.5816 89.1847C44.1757 89.2105 43.3816 89.8817 43.3816 91.0048C43.3816 92.1149 44.1887 92.812 45.5946 92.812C51.2704 92.8249 56.9591 92.812 62.6349 92.8249C63.0254 92.8249 63.416 92.8378 63.8065 92.8895C64.6787 93.0314 65.2645 93.6898 65.3165 94.5288C65.3686 95.3808 64.8088 96.1424 63.9236 96.3489C63.5201 96.4393 63.0905 96.4651 62.6739 96.4651C56.9982 96.478 51.3094 96.4651 45.6337 96.478C44.1887 96.478 43.4077 97.0976 43.3816 98.2336C43.3556 99.2663 43.9674 99.8601 45.2692 100.105C46.6491 100.364 47.352 101.487 46.8183 102.635C46.4278 103.474 45.6988 103.758 44.8136 103.681C42.6917 103.487 41.1035 102.455 40.2183 100.544C39.3591 98.6854 39.5284 96.8395 40.713 95.1226C40.7911 94.9806 40.8952 94.8386 41.0254 94.6579ZM54.3556 103.771C54.3556 104.339 54.3426 104.869 54.3556 105.398C54.3946 106.573 55.0586 107.295 56.2432 107.347C57.4148 107.399 58.5864 107.399 59.758 107.347C60.7733 107.308 61.4893 106.702 61.5935 105.824C61.6716 105.165 61.6065 104.481 61.6065 103.771C59.1722 103.771 56.8159 103.771 54.3556 103.771Z" fill="url(#paint0_linear_66_90)"/>
        <path d="M59.823 72.5712C59.81 73.8104 59.1591 74.5462 58.1177 74.5978C57.1674 74.6495 56.3994 74.0944 56.2432 73.165C56.165 72.7003 56.165 72.2226 56.165 71.745C56.165 68.4146 56.1911 65.0713 56.139 61.7409C56.126 61.2374 55.8917 60.6307 55.5402 60.2693C53.6396 58.2427 51.5958 56.3451 49.7343 54.2797C46.3627 50.5621 44.0976 46.2893 43.4727 41.2679C43.1082 38.2989 43.5378 35.3945 44.5662 32.5804C46.2065 28.1399 48.9662 24.4867 52.4029 21.2854C53.8218 19.9558 55.1627 18.5359 56.5686 17.1934C57.5059 16.2898 58.4692 16.2381 59.3544 17.1288C62.1662 19.9816 65.1603 22.6924 67.6597 25.7905C71.0704 29.9987 72.9449 34.904 72.6065 40.4417C72.3721 44.2498 70.9532 47.6576 69.0136 50.8977C67.4905 53.4407 65.4076 55.4931 63.2858 57.5198C63.0254 57.765 62.8041 58.0619 62.5047 58.2556C61.4893 59.3012 60.6041 60.6307 60.2526 62.2959C59.4195 66.1814 59.8491 71.2674 59.823 72.5712ZM56.165 55.506C56.165 55.0155 56.165 54.667 56.165 54.3184C56.165 46.2506 56.165 38.1827 56.165 30.1149C56.165 29.676 56.1781 29.2113 56.2692 28.7853C56.4384 27.985 57.1414 27.4557 57.9615 27.4428C58.8076 27.4299 59.5627 27.9591 59.7319 28.7982C59.823 29.2242 59.823 29.6889 59.823 30.1278C59.823 38.2602 59.823 46.3797 59.823 54.5121C59.823 54.8477 59.823 55.1833 59.823 55.6868C63.481 52.6145 66.3059 49.2325 67.894 44.9081C69.2609 41.2162 69.2999 37.5373 67.9852 33.8196C66.0976 28.4238 61.971 24.7578 57.9224 20.8981C56.4905 22.331 55.1106 23.738 53.7047 25.1063C51.8041 26.9652 50.2289 29.0564 49.0443 31.4186C47.5082 34.478 46.584 37.6922 47.1307 41.1517C47.8207 45.5277 49.9165 49.2196 52.9497 52.408C53.939 53.4536 55.0065 54.3959 56.165 55.506Z" fill="url(#paint1_linear_66_90)"/>
        <path d="M8.18163 18.5232C8.36388 18.5619 8.70234 18.6135 9.00175 18.7297C11.6574 19.672 14.3 20.6273 16.9426 21.5954C18.1532 22.0343 18.6739 22.9379 18.3745 23.906C18.0751 24.8613 17.0988 25.4551 16.0964 25.1195C13.1544 24.0997 10.2254 23.0412 7.30944 21.9439C6.45027 21.6212 6.05973 20.7176 6.255 19.8915C6.46328 19.0653 7.17926 18.5103 8.18163 18.5232Z" fill="url(#paint2_linear_66_90)"/>
        <path d="M99.4751 25.2096C98.4988 25.1709 97.926 24.7449 97.6526 23.9704C97.3792 23.2088 97.6136 22.5505 98.2124 22.047C98.4727 21.8276 98.8242 21.6727 99.1627 21.5565C101.727 20.6142 104.292 19.6977 106.856 18.7682C107.104 18.6779 107.364 18.6004 107.637 18.5617C108.653 18.4068 109.473 18.9102 109.733 19.8138C109.98 20.6529 109.564 21.5307 108.692 21.9438C108.236 22.1632 107.741 22.3052 107.26 22.4859C104.982 23.3121 102.704 24.1511 100.412 24.9644C100.061 25.0805 99.6964 25.1451 99.4751 25.2096Z" fill="url(#paint3_linear_66_90)"/>
        <path d="M17.4503 2.61963C17.7366 2.76162 18.2443 2.90362 18.6088 3.21342C20.8479 5.04644 23.0869 6.89237 25.2869 8.76411C26.2242 9.56444 26.3414 10.6488 25.6384 11.4491C24.9615 12.2365 23.842 12.2881 22.9047 11.5136C20.6917 9.69353 18.4917 7.86051 16.2917 6.01458C15.6017 5.4337 15.1982 4.73663 15.5497 3.82013C15.8621 3.08434 16.4479 2.73581 17.4503 2.61963Z" fill="url(#paint4_linear_66_90)"/>
        <path d="M91.99 12.0687C90.9485 12.0429 90.3497 11.6814 90.0503 10.9585C89.6858 10.1066 89.9982 9.37079 90.6621 8.80282C91.8337 7.79595 93.0444 6.80199 94.229 5.80803C95.2574 4.94315 96.2858 4.07828 97.3403 3.23922C98.3817 2.41307 99.4101 2.4518 100.126 3.31667C100.829 4.15573 100.673 5.18842 99.6574 6.04038C97.4834 7.8734 95.3095 9.6806 93.1095 11.4749C92.732 11.7847 92.2373 11.9396 91.99 12.0687Z" fill="url(#paint5_linear_66_90)"/>
        <path d="M106.531 40.1061C105.086 40.1061 103.654 40.1319 102.209 40.1061C100.959 40.0803 100.178 39.3574 100.191 38.2989C100.204 37.2791 100.972 36.5175 102.157 36.5046C105.125 36.4659 108.093 36.4659 111.061 36.5046C112.207 36.5175 113.001 37.3437 112.988 38.3376C112.975 39.3574 112.194 40.0803 111.022 40.1061C109.525 40.119 108.028 40.1061 106.531 40.1061Z" fill="url(#paint6_linear_66_90)"/>
        <path d="M9.3923 40.1062C7.94733 40.1062 6.51538 40.1191 5.07041 40.1062C3.80769 40.0804 3.02662 39.3962 3.00058 38.3506C2.97455 37.2921 3.8207 36.5047 5.09644 36.4918C7.97337 36.466 10.8503 36.466 13.7272 36.4918C15.003 36.5047 15.8361 37.2921 15.797 38.3635C15.758 39.422 14.9899 40.0933 13.7142 40.1062C12.2692 40.132 10.8373 40.1062 9.3923 40.1062Z" fill="url(#paint7_linear_66_90)"/>
    </g>
    <defs>
        <filter id="filter0_d_66_90" x="0" y="0.997559" width="117.988" height="116.998" filterUnits="userSpaceOnUse" color-interpolation-filters="sRGB">
            <feFlood flood-opacity="0" result="BackgroundImageFix"/>
            <feColorMatrix in="SourceAlpha" type="matrix" values="0 0 0 0 0 0 0 0 0 0 0 0 0 0 0 0 0 0 127 0" result="hardAlpha"/>
            <feOffset dx="1" dy="3"/>
            <feGaussianBlur stdDeviation="2"/>
            <feComposite in2="hardAlpha" operator="out"/>
            <feColorMatrix type="matrix" values="0 0 0 0 0.60559 0 0 0 0 0.891667 0 0 0 0 0.847879 0 0 0 0.81 0"/>
            <feBlend mode="normal" in2="BackgroundImageFix" result="effect1_dropShadow_66_90"/>
            <feBlend mode="normal" in="SourceGraphic" in2="effect1_dropShadow_66_90" result="shape"/>
        </filter>
        <linearGradient id="paint0_linear_66_90" x1="21.3303" y1="56.4991" x2="94.6648" y2="56.4991" gradientUnits="userSpaceOnUse">
            <stop stop-color="#00AA9C"/>
            <stop offset="1" stop-color="#72D4C5"/>
        </linearGradient>
        <linearGradient id="paint1_linear_66_90" x1="43.335" y1="45.5471" x2="72.6493" y2="45.5471" gradientUnits="userSpaceOnUse">
            <stop stop-color="#00AA9C"/>
            <stop offset="1" stop-color="#72D4C5"/>
        </linearGradient>
        <linearGradient id="paint2_linear_66_90" x1="6.21712" y1="21.8689" x2="18.4688" y2="21.8689" gradientUnits="userSpaceOnUse">
            <stop stop-color="#00AA9C"/>
            <stop offset="1" stop-color="#72D4C5"/>
        </linearGradient>
        <linearGradient id="paint3_linear_66_90" x1="97.5257" y1="21.873" x2="109.78" y2="21.873" gradientUnits="userSpaceOnUse">
            <stop stop-color="#00AA9C"/>
            <stop offset="1" stop-color="#72D4C5"/>
        </linearGradient>
        <linearGradient id="paint4_linear_66_90" x1="15.4372" y1="7.34752" x2="26.0985" y2="7.34752" gradientUnits="userSpaceOnUse">
            <stop stop-color="#00AA9C"/>
            <stop offset="1" stop-color="#72D4C5"/>
        </linearGradient>
        <linearGradient id="paint5_linear_66_90" x1="89.8961" y1="7.36106" x2="100.558" y2="7.36106" gradientUnits="userSpaceOnUse">
            <stop stop-color="#00AA9C"/>
            <stop offset="1" stop-color="#72D4C5"/>
        </linearGradient>
        <linearGradient id="paint6_linear_66_90" x1="100.198" y1="38.2905" x2="112.998" y2="38.2905" gradientUnits="userSpaceOnUse">
            <stop stop-color="#00AA9C"/>
            <stop offset="1" stop-color="#72D4C5"/>
        </linearGradient>
        <linearGradient id="paint7_linear_66_90" x1="3.00058" y1="38.2979" x2="15.7995" y2="38.2979" gradientUnits="userSpaceOnUse">
            <stop stop-color="#00AA9C"/>
            <stop offset="1" stop-color="#72D4C5"/>
        </linearGradient>
    </defs>
</svg>
