<svg width="89" height="109" viewBox="0 0 89 109" fill="none" xmlns="http://www.w3.org/2000/svg">
    <g filter="url(#filter0_d_66_79)">
        <path d="M83.9879 15.0023C83.9879 13.7549 83.4543 13.0334 82.2658 12.6665C82.2658 12.6665 54.7362 4.30185 44.3065 1.12229C44.0275 1.03669 43.7607 1 43.4939 1C43.2271 1 42.9603 1.03669 42.6814 1.12229C31.9242 4.39969 21.155 7.67708 10.3857 10.9545L4.73424 12.6665C3.52149 13.0456 3 13.7549 3 15.039C3 15.039 3 44.2054 3 53.5361C3 57.7185 3.3517 61.4973 4.06723 65.1171C5.12232 70.4612 7.0021 75.3406 9.63378 79.6208C12.9567 85.0016 17.4075 89.453 23.2409 93.2318C27.6917 96.1178 32.7247 98.4658 39.0674 100.643L41.7718 101.56L43.0816 102H43.9184C43.9305 102 43.9427 102 43.9548 102L45.1797 101.584C46.259 101.217 47.3262 100.85 48.4056 100.484C54.8696 98.2334 59.9995 95.7754 64.5231 92.7304C73.1943 86.9215 79.0398 79.0705 81.8898 69.4095C83.3087 64.5912 84 59.4061 84 53.5484C84 43.2759 84 32.9913 84 22.7189L83.9879 15.0023ZM43.4697 97.6342C43.409 97.6342 43.3363 97.622 43.2878 97.6098C37.0906 95.6409 32.2396 93.5986 28.0434 91.1773C22.7922 88.1567 18.6688 84.6347 15.4065 80.4279C12.035 76.0743 9.67016 70.9504 8.38464 65.2027C7.57209 61.5951 7.17188 57.7674 7.17188 53.4872V43.2637C7.17188 34.4099 7.17188 25.556 7.15975 16.7144C7.15975 16.3964 7.23252 16.2986 7.53571 16.2008L43.118 5.4147C43.2271 5.37801 43.3605 5.36578 43.4939 5.36578C43.6273 5.36578 43.7729 5.39024 43.882 5.4147L79.4158 16.1885C79.7432 16.2864 79.816 16.4086 79.816 16.7633C79.8039 22.4376 79.8039 28.1119 79.8039 33.7739V37.3082C79.7675 37.3326 79.7432 37.3693 79.7432 37.4182C79.7432 39.326 79.7554 41.2337 79.7554 43.1414C79.7675 47.4094 79.7917 51.8363 79.719 56.1776C79.5977 62.9281 78.2151 68.847 75.4986 74.2522C73.0852 79.046 69.5682 83.314 65.0446 86.9093C60.8121 90.2845 55.9004 93.0361 50.0186 95.3352C48.5026 95.9221 46.9382 96.4602 45.4222 96.9739L43.7122 97.5608C43.6516 97.6098 43.5546 97.6342 43.4697 97.6342Z" fill="url(#paint0_linear_66_79)"/>
        <path d="M61.1759 85.4784C67.8704 80.8314 72.4546 74.729 74.7952 67.3305C76.105 63.1848 76.7477 58.66 76.7477 53.4749C76.7477 50.1975 76.7477 21.2268 76.7477 21.2268C76.7477 20.0284 76.2141 19.3068 75.0741 18.9522L50.8918 11.5903C48.6482 10.9055 46.3924 10.2206 44.1488 9.54803C43.9305 9.48688 43.7001 9.4502 43.4818 9.4502C42.3903 9.4502 41.5172 10.2695 41.4201 11.3946C41.3231 12.4341 41.9901 13.2779 43.1908 13.6448L48.5148 15.259C56.3977 17.6559 64.2806 20.0528 72.1635 22.4375C72.4788 22.5353 72.5516 22.6331 72.5516 22.9756C72.5395 33.1502 72.5395 43.3248 72.5395 53.4994C72.5395 56.3732 72.3818 58.7579 72.018 61.008C71.3874 65.0314 70.1625 68.5534 68.2706 71.7818C65.8693 75.8786 62.4978 79.3516 57.9621 82.3845C54.0571 85.0015 49.4728 87.1905 43.9427 89.0738C43.688 89.1594 43.3727 89.2083 43.0452 89.2205C42.4146 89.2327 41.8325 89.514 41.4444 89.991C41.0563 90.4557 40.8987 91.0793 41.0078 91.6786C41.1897 92.7303 42.2448 93.5618 43.4091 93.5618C43.6516 93.5618 43.882 93.5252 44.1003 93.464C45.119 93.146 46.1256 92.7914 47.1322 92.4245C52.8443 90.3701 57.2951 88.1688 61.1759 85.4784Z" fill="url(#paint1_linear_66_79)"/>
        <path d="M26.9883 79.8531C23.4228 77.1016 20.7669 73.9831 18.8871 70.3266C16.6556 65.9975 15.5156 61.2282 15.4065 55.7496C15.3337 52.0197 15.358 48.2287 15.3701 44.56C15.3822 42.9335 15.3822 41.2948 15.3822 39.6683C15.3822 39.6439 15.3701 39.6194 15.3458 39.595V22.2052C15.3458 21.9484 15.3458 21.6916 15.3094 21.4348C15.176 20.5054 14.3756 19.7594 13.4418 19.6982H13.272C12.0108 19.6982 11.174 20.6399 11.174 22.034V27.7939C11.174 36.4032 11.174 45.0247 11.174 53.6462C11.174 57.1804 11.465 60.3599 12.0714 63.3438C13.2235 69.0181 15.5641 73.9709 19.0326 78.0677C20.6577 79.9876 22.5739 81.7853 24.6962 83.3995C25.1085 83.7053 25.533 83.8642 25.9696 83.8642C26.3213 83.8642 26.673 83.7664 27.0125 83.5585C27.7887 83.1183 28.1404 82.3845 28.0434 81.4551C27.9585 80.6969 27.4613 80.22 26.9883 79.8531Z" fill="url(#paint2_linear_66_79)"/>
        <path d="M62.1704 42.9581C62.6191 42.3955 62.7525 41.6496 62.5221 40.9647C62.2917 40.2799 61.7338 39.7663 61.0304 39.5951C60.8606 39.5584 60.6908 39.5339 60.521 39.5339C59.951 39.5339 59.4174 39.7907 58.896 40.3166L37.794 61.6074C37.7091 61.693 37.6363 61.8031 37.5757 61.9132L37.5514 61.9498C37.5514 61.9498 29.5836 53.9153 28.0677 52.3867C27.619 51.922 27.1096 51.6896 26.5517 51.6896C26.3941 51.6896 26.2364 51.7141 26.0666 51.7508C25.2662 51.9342 24.7326 52.4478 24.5143 53.2427C24.296 54.0376 24.5022 54.7469 25.1086 55.3584L35.8293 66.1566C36.3751 66.707 36.9451 66.9882 37.5151 66.9882C38.085 66.9882 38.6429 66.707 39.1887 66.1566L61.8429 43.325C61.94 43.2149 62.0612 43.0926 62.1704 42.9581Z" fill="url(#paint3_linear_66_79)"/>
    </g>
    <defs>
        <filter id="filter0_d_66_79" x="0" y="0" width="89" height="109" filterUnits="userSpaceOnUse" color-interpolation-filters="sRGB">
            <feFlood flood-opacity="0" result="BackgroundImageFix"/>
            <feColorMatrix in="SourceAlpha" type="matrix" values="0 0 0 0 0 0 0 0 0 0 0 0 0 0 0 0 0 0 127 0" result="hardAlpha"/>
            <feOffset dx="1" dy="3"/>
            <feGaussianBlur stdDeviation="2"/>
            <feComposite in2="hardAlpha" operator="out"/>
            <feColorMatrix type="matrix" values="0 0 0 0 0.65161 0 0 0 0 0.551736 0 0 0 0 0.945833 0 0 0 0.81 0"/>
            <feBlend mode="normal" in2="BackgroundImageFix" result="effect1_dropShadow_66_79"/>
            <feBlend mode="normal" in="SourceGraphic" in2="effect1_dropShadow_66_79" result="shape"/>
        </filter>
        <linearGradient id="paint0_linear_66_79" x1="3" y1="51.4982" x2="83.9945" y2="51.4982" gradientUnits="userSpaceOnUse">
            <stop stop-color="#334AFF"/>
            <stop offset="1" stop-color="#724DDF"/>
        </linearGradient>
        <linearGradient id="paint1_linear_66_79" x1="40.9953" y1="51.4995" x2="76.7462" y2="51.4995" gradientUnits="userSpaceOnUse">
            <stop stop-color="#334AFF"/>
            <stop offset="1" stop-color="#724DDF"/>
        </linearGradient>
        <linearGradient id="paint2_linear_66_79" x1="11.1621" y1="51.7724" x2="28.0605" y2="51.7724" gradientUnits="userSpaceOnUse">
            <stop stop-color="#334AFF"/>
            <stop offset="1" stop-color="#724DDF"/>
        </linearGradient>
        <linearGradient id="paint3_linear_66_79" x1="24.4278" y1="53.2639" x2="62.6283" y2="53.2639" gradientUnits="userSpaceOnUse">
            <stop stop-color="#334AFF"/>
            <stop offset="1" stop-color="#724DDF"/>
        </linearGradient>
    </defs>
</svg>
