<svg width="71" height="103" viewBox="0 0 71 103" fill="none" xmlns="http://www.w3.org/2000/svg">
    <g filter="url(#filter0_d_66_66)">
        <path d="M51.7932 1C53.5565 1.98661 53.7103 3.23473 52.2429 4.68494C49.7813 7.12175 47.3198 9.55856 44.7281 12.1261C46.1955 13.5644 47.6275 14.9195 49.0239 16.3103C52.3612 19.6268 55.6867 22.9432 59.0239 26.2715C60.4204 27.6623 60.4204 28.5657 58.9884 29.9565C56.7281 32.1555 54.6216 34.5686 52.1364 36.4705C47.8878 39.7275 43.1186 40.0722 38.2074 37.9207C37.6038 37.6592 37.2488 37.7067 36.7873 38.1822C34.6216 40.3931 32.4204 42.5684 30.2192 44.7556C30.0062 44.9696 29.7932 45.1954 29.4026 45.6115C29.9352 45.6115 30.2547 45.6115 30.5624 45.6115C35.8642 45.6115 41.1541 45.6234 46.4559 45.6115C48.4677 45.5996 50.2547 46.1345 51.663 47.6204C54.16 50.2355 54.1009 54.1225 51.4736 56.7852C48.3849 59.9114 45.2606 63.002 42.1482 66.1045C36.7754 71.4655 31.4145 76.8146 26.0417 82.1637C25.805 82.4014 25.4855 82.5441 25.2843 82.6867C26.6689 83.2929 27.9588 83.6376 28.9884 84.3509C31.2843 85.9675 32.1245 88.8203 31.308 91.4236C30.4796 94.0624 28.1127 95.9168 25.2606 95.9525C19.9944 96.0119 14.7281 96.0238 9.46181 95.9406C5.84051 95.8811 3.14229 93.266 3.07128 89.6643C2.96477 84.3152 2.98844 78.9661 3.07128 73.617C3.11862 70.6453 5.27246 68.2085 8.0772 67.5903C11.0121 66.9485 13.947 68.3154 15.2961 71.0494C15.6867 71.834 15.8287 72.7255 16.0417 73.4268C20.9293 68.5294 25.9115 63.525 30.8701 58.5563C30.7399 58.5563 30.4204 58.5563 30.1009 58.5563C24.7162 58.5563 19.3198 58.5801 13.9233 58.5563C9.99436 58.5444 7.10678 55.7035 7.17779 51.9591C7.21329 50.0691 8.02986 48.5357 9.36714 47.2043C15.45 41.1658 21.4973 35.0916 27.592 29.0531C28.1719 28.4825 28.231 28.0546 27.947 27.3057C25.9352 21.9685 26.8109 17.0948 30.6216 12.8393C32.4796 10.771 34.5151 8.85723 36.5032 6.90778C37.5565 5.87362 38.5151 5.8974 39.592 6.8959C40.018 7.30005 40.4322 7.71609 40.8464 8.13213C41.237 8.5244 41.6038 8.94044 42.1837 9.55856C42.6807 8.9761 43.0831 8.4293 43.5565 7.95383C45.45 6.04004 47.3553 4.13814 49.2725 2.24812C49.7695 1.80831 50.3375 1.42793 50.8583 1C51.1659 1 51.4855 1 51.7932 1ZM30.3731 31.6919C30.4086 31.6682 30.3257 31.7038 30.2665 31.7752C24.1482 37.8731 18.0299 43.9592 11.947 50.081C11.521 50.5089 11.1896 51.1627 11.0949 51.7689C10.8109 53.5519 12.0772 54.8001 14.0654 54.8001C21.1896 54.8119 28.3139 54.8119 35.4381 54.8001C36.4204 54.8001 37.237 55.0259 37.6393 55.9887C38.0535 56.9635 37.6038 57.7005 36.9174 58.378C34.8228 60.4463 32.7517 62.5265 30.6689 64.6067C25.7577 69.5041 20.8464 74.4015 15.9589 79.2989C15.237 80.024 14.4796 80.5946 13.4263 80.1786C12.302 79.7387 12.1955 78.7521 12.2192 77.7061C12.2429 76.5649 12.2192 75.4238 12.2192 74.2708C12.2074 72.4402 11.166 71.2634 9.54465 71.2634C7.92335 71.2634 6.84643 72.4402 6.83459 74.247C6.82276 79.2276 6.82276 84.1963 6.83459 89.1769C6.83459 91.0313 7.88785 92.1605 9.75767 92.1724C14.8701 92.2081 19.9825 92.2081 25.0949 92.1724C26.7281 92.1605 27.8287 91.0194 27.8287 89.5098C27.8287 88.0001 26.7399 86.8946 25.0949 86.8352C23.7932 86.7877 22.4914 86.8114 21.1896 86.8114C20.1955 86.8233 19.3316 86.6331 18.8938 85.6109C18.4796 84.6243 18.9411 83.8992 19.6275 83.2216C25.0831 77.7774 30.5387 72.3332 35.9944 66.889C40.1955 62.6929 44.4086 58.4969 48.6216 54.3008C49.3316 53.5876 49.805 52.7912 49.663 51.7451C49.45 50.2593 48.3375 49.3915 46.5979 49.3915C39.4736 49.3915 32.3494 49.3915 25.2251 49.3915C24.2902 49.3915 23.4736 49.1657 23.0831 48.2504C22.6807 47.2994 23.0476 46.5268 23.7577 45.8373C25.1541 44.4822 26.5269 43.0915 27.9115 41.7126C30.0417 39.6086 32.1837 37.5046 34.3494 35.3769C32.9411 34.1169 31.6748 32.9163 30.3731 31.6919ZM38.1364 10.9374C36.5032 12.5065 34.7754 13.9329 33.308 15.5971C29.8642 19.496 29.8642 24.9521 33.2843 28.851C34.6097 30.3606 36.0417 31.787 37.5802 33.0589C40.8109 35.7216 44.4559 36.1733 48.2547 34.4378C51.2488 33.0708 53.0713 30.2893 55.4145 28.1734C49.5683 22.3489 43.8168 16.6075 38.1364 10.9374Z" fill="url(#paint0_linear_66_66)"/>
        <path d="M65.4617 14.765C65.0711 15.4307 64.87 15.9775 64.5149 16.346C63.1303 17.7962 61.6984 19.2107 60.2546 20.6134C59.3078 21.5405 58.1481 21.5881 57.367 20.7917C56.5741 19.9715 56.6333 18.8898 57.5919 17.915C59.0238 16.4648 60.4676 15.0265 61.9232 13.6001C62.5623 12.9701 63.3788 12.7324 64.1126 13.2078C64.6688 13.5407 65.0001 14.1945 65.4617 14.765Z" fill="url(#paint1_linear_66_66)"/>
        <path d="M33.0831 22.0992C33.2251 19.6862 34.1008 17.6297 35.7103 15.8824C36.4914 15.0384 37.6393 14.9433 38.444 15.6208C39.2369 16.2865 39.3789 17.392 38.6097 18.2597C37.1186 19.9596 36.6452 21.8139 37.2487 24.0011C37.5564 25.1422 36.8937 26.1051 35.8523 26.3428C34.8464 26.5806 33.876 25.9624 33.5801 24.7975C33.3671 23.9298 33.2487 23.0026 33.0831 22.0992Z" fill="url(#paint2_linear_66_66)"/>
        <path d="M40.3612 32.215C39.0712 32.0367 37.3198 30.6222 37.3553 29.5286C37.3671 28.9461 37.7221 28.1497 38.1837 27.8525C38.6452 27.5435 39.4973 27.5554 40.0535 27.7574C40.6452 27.9714 41.1659 28.5301 41.6156 29.0175C42.1363 29.588 42.2428 30.3607 41.7931 30.9788C41.4381 31.4662 40.8464 31.799 40.3612 32.215Z" fill="url(#paint3_linear_66_66)"/>
    </g>
    <defs>
        <filter id="filter0_d_66_66" x="0" y="0" width="70.4617" height="103" filterUnits="userSpaceOnUse" color-interpolation-filters="sRGB">
            <feFlood flood-opacity="0" result="BackgroundImageFix"/>
            <feColorMatrix in="SourceAlpha" type="matrix" values="0 0 0 0 0 0 0 0 0 0 0 0 0 0 0 0 0 0 127 0" result="hardAlpha"/>
            <feOffset dx="1" dy="3"/>
            <feGaussianBlur stdDeviation="2"/>
            <feComposite in2="hardAlpha" operator="out"/>
            <feColorMatrix type="matrix" values="0 0 0 0 0.933333 0 0 0 0 0.677522 0 0 0 0 0.377222 0 0 0 0.81 0"/>
            <feBlend mode="normal" in2="BackgroundImageFix" result="effect1_dropShadow_66_66"/>
            <feBlend mode="normal" in="SourceGraphic" in2="effect1_dropShadow_66_66" result="shape"/>
        </filter>
        <linearGradient id="paint0_linear_66_66" x1="3.00028" y1="48.5087" x2="60.0652" y2="48.5087" gradientUnits="userSpaceOnUse">
            <stop stop-color="#FF632A"/>
            <stop offset="1" stop-color="#B83C00"/>
        </linearGradient>
        <linearGradient id="paint1_linear_66_66" x1="56.821" y1="17.1546" x2="65.4578" y2="17.1546" gradientUnits="userSpaceOnUse">
            <stop stop-color="#FF632A"/>
            <stop offset="1" stop-color="#B83C00"/>
        </linearGradient>
        <linearGradient id="paint2_linear_66_66" x1="33.08" y1="20.7938" x2="39.1203" y2="20.7938" gradientUnits="userSpaceOnUse">
            <stop stop-color="#FF632A"/>
            <stop offset="1" stop-color="#B83C00"/>
        </linearGradient>
        <linearGradient id="paint3_linear_66_66" x1="37.3586" y1="29.9054" x2="42.0882" y2="29.9054" gradientUnits="userSpaceOnUse">
            <stop stop-color="#FF632A"/>
            <stop offset="1" stop-color="#B83C00"/>
        </linearGradient>
    </defs>
</svg>
