<svg width="16" height="13" viewBox="0 0 16 13" fill="none" xmlns="http://www.w3.org/2000/svg">
    <path d="M1 5.75C0.585786 5.75 0.25 6.08579 0.25 6.5C0.25 6.91421 0.585786 7.25 1 7.25V5.75ZM14.5739 7.25C14.9881 7.25 15.3239 6.91421 15.3239 6.5C15.3239 6.08579 14.9881 5.75 14.5739 5.75V7.25ZM10.2446 0.479802C9.95732 0.181418 9.48253 0.172431 9.18415 0.459728C8.88577 0.747026 8.87678 1.22181 9.16408 1.5202L10.2446 0.479802ZM15 6.5L15.5403 7.0202C15.8199 6.72977 15.8199 6.27023 15.5403 5.9798L15 6.5ZM9.16408 11.4798C8.87678 11.7782 8.88577 12.253 9.18415 12.5403C9.48253 12.8276 9.95732 12.8186 10.2446 12.5202L9.16408 11.4798ZM1 7.25H14.5739V5.75H1V7.25ZM14.4597 5.9798L9.16408 11.4798L10.2446 12.5202L15.5403 7.0202L14.4597 5.9798ZM9.16408 1.5202L11.8119 4.2702L12.8924 3.2298L10.2446 0.479802L9.16408 1.5202ZM11.8119 4.2702L14.4597 7.0202L15.5403 5.9798L12.8924 3.2298L11.8119 4.2702Z" fill="white"/>
</svg>
