<svg width="564" height="114" viewBox="0 0 564 114" fill="none" xmlns="http://www.w3.org/2000/svg">
    <g filter="url(#filter0_d_0_1)">
        <path d="M484.5 102H542C547.523 102 552 97.5229 552 92V22C552 16.4772 547.523 12 542 12H22C16.4772 12 12 16.4772 12 22V92C12 97.5229 16.4771 102 22 102H282H447.566" stroke="#FF00C7" stroke-opacity="0.82" stroke-width="9" stroke-linecap="round" shape-rendering="crispEdges"/>
    </g>
    <path d="M484.5 102H542C547.523 102 552 97.5229 552 92V22C552 16.4772 547.523 12 542 12H22C16.4772 12 12 16.4772 12 22V92C12 97.5229 16.4771 102 22 102H282H448.415" stroke="#E100B0" stroke-width="6" stroke-linecap="round"/>
    <path d="M484.5 102H542C547.523 102 552 97.5229 552 92V22C552 16.4772 547.523 12 542 12H22C16.4772 12 12 16.4772 12 22V92C12 97.5229 16.4771 102 22 102H282H448.415" stroke="#FF78E1" stroke-width="5" stroke-linecap="round"/>
    <defs>
        <filter id="filter0_d_0_1" x="0.5" y="0.5" width="563" height="113" filterUnits="userSpaceOnUse" color-interpolation-filters="sRGB">
            <feFlood flood-opacity="0" result="BackgroundImageFix"/>
            <feColorMatrix in="SourceAlpha" type="matrix" values="0 0 0 0 0 0 0 0 0 0 0 0 0 0 0 0 0 0 127 0" result="hardAlpha"/>
            <feOffset/>
            <feGaussianBlur stdDeviation="3.5"/>
            <feComposite in2="hardAlpha" operator="out"/>
            <feColorMatrix type="matrix" values="0 0 0 0 1 0 0 0 0 0 0 0 0 0 0.78 0 0 0 0.82 0"/>
            <feBlend mode="normal" in2="BackgroundImageFix" result="effect1_dropShadow_0_1"/>
            <feBlend mode="normal" in="SourceGraphic" in2="effect1_dropShadow_0_1" result="shape"/>
        </filter>
    </defs>
</svg>
