<svg width="371" height="112" viewBox="0 0 371 112" fill="none" xmlns="http://www.w3.org/2000/svg">
    <g filter="url(#filter0_d_0_1)">
        <path d="M315.625 100H349C354.523 100 359 95.5228 359 90V22C359 16.4772 354.523 12 349 12H22C16.4772 12 12 16.4772 12 22V90C12 95.5228 16.4772 100 22 100H185.5H291.892" stroke="#5CEBFF" stroke-opacity="0.82" stroke-width="9" stroke-linecap="round" shape-rendering="crispEdges"/>
    </g>
    <path d="M315.625 100H349C354.523 100 359 95.5228 359 90V22C359 16.4772 354.523 12 349 12H22C16.4772 12 12 16.4772 12 22V90C12 95.5228 16.4772 100 22 100H185.5H292.437" stroke="#00B6CF" stroke-width="6" stroke-linecap="round"/>
    <path d="M315.625 100H349C354.523 100 359 95.5228 359 90V22C359 16.4772 354.523 12 349 12H22C16.4772 12 12 16.4772 12 22V90C12 95.5228 16.4772 100 22 100H185.5H292.437" stroke="#91F1FF" stroke-width="5" stroke-linecap="round"/>
    <defs>
        <filter id="filter0_d_0_1" x="0.5" y="0.5" width="370" height="111" filterUnits="userSpaceOnUse" color-interpolation-filters="sRGB">
            <feFlood flood-opacity="0" result="BackgroundImageFix"/>
            <feColorMatrix in="SourceAlpha" type="matrix" values="0 0 0 0 0 0 0 0 0 0 0 0 0 0 0 0 0 0 127 0" result="hardAlpha"/>
            <feOffset/>
            <feGaussianBlur stdDeviation="3.5"/>
            <feComposite in2="hardAlpha" operator="out"/>
            <feColorMatrix type="matrix" values="0 0 0 0 0.360784 0 0 0 0 0.921569 0 0 0 0 1 0 0 0 0.82 0"/>
            <feBlend mode="normal" in2="BackgroundImageFix" result="effect1_dropShadow_0_1"/>
            <feBlend mode="normal" in="SourceGraphic" in2="effect1_dropShadow_0_1" result="shape"/>
        </filter>
    </defs>
</svg>
